<svg width="35" height="35" viewBox="0 0 35 35" fill="none" xmlns="http://www.w3.org/2000/svg">
<circle cx="17.5" cy="17.5" r="17.5" fill="#00398E"/>
<path d="M25.375 12.0913C25.375 10.7811 24.2189 9.625 22.9087 9.625H12.9663C11.6561 9.625 10.5 10.7811 10.5 12.0913V22.0337C10.5 23.3439 11.6561 24.5 12.9663 24.5H17.976V18.8737H16.1263V16.4074H17.976V15.4054C17.976 13.7098 19.2092 12.2455 20.7506 12.2455H22.7545V14.7118H20.7506C20.5194 14.7118 20.2882 14.943 20.2882 15.4054V16.4074H22.7545V18.8737H20.2882V24.5H22.9087C24.2189 24.5 25.375 23.3439 25.375 22.0337V12.0913Z" fill="white"/>
</svg>
