<svg width="35" height="35" viewBox="0 0 35 35" fill="none" xmlns="http://www.w3.org/2000/svg">
<circle cx="17.5" cy="17.5" r="17.5" fill="url(#paint0_linear_58_244)"/>
<path d="M23.2582 10.5H12.6168C11.4154 10.5 10.5 11.4154 10.5 12.6168V23.2582C10.5 24.4596 11.4154 25.375 12.6168 25.375H23.2582C24.4596 25.375 25.375 24.4596 25.375 23.2582V12.6168C25.375 11.4154 24.4596 10.5 23.2582 10.5ZM17.9375 22.4C20.3976 22.4 22.4 20.4548 22.4 18.1091C22.4 17.7087 22.3428 17.251 22.2284 16.9077H23.487V22.9721C23.487 23.2582 23.2582 23.5442 22.9149 23.5442H12.9601C12.674 23.5442 12.388 23.3154 12.388 22.9721V16.8505H13.7038C13.5894 17.251 13.5322 17.6514 13.5322 18.0519C13.475 20.4548 15.4774 22.4 17.9375 22.4ZM17.9375 20.6837C16.3356 20.6837 15.0769 19.425 15.0769 17.8803C15.0769 16.3356 16.3356 15.0769 17.9375 15.0769C19.5394 15.0769 20.7981 16.3356 20.7981 17.8803C20.7981 19.4822 19.5394 20.6837 17.9375 20.6837ZM23.4298 14.562C23.4298 14.9053 23.1437 15.1913 22.8005 15.1913H21.1986C20.8553 15.1913 20.5692 14.9053 20.5692 14.562V13.0173C20.5692 12.674 20.8553 12.388 21.1986 12.388H22.8005C23.1437 12.388 23.4298 12.674 23.4298 13.0173V14.562Z" fill="white"/>
<defs>
<linearGradient id="paint0_linear_58_244" x1="7.4375" y1="31.0625" x2="30.625" y2="7" gradientUnits="userSpaceOnUse">
<stop stop-color="#EEA054"/>
<stop offset="0.502762" stop-color="#D64763"/>
<stop offset="1" stop-color="#B62A99"/>
</linearGradient>
</defs>
</svg>
