<svg width="40" height="40" viewBox="0 0 40 40" fill="none" xmlns="http://www.w3.org/2000/svg">
<circle cx="20" cy="20" r="20" fill="#F59124"/>
<path d="M26.5808 14.1577C25.0116 12.7192 23.1154 12 20.7615 12C18.3423 12 16.25 12.7846 14.55 14.4192C12.85 16.0538 12 18.0808 12 20.5C12 22.8538 12.7846 24.8154 14.4192 26.5154C16.0539 28.2154 18.2116 29 21.0231 29C22.6577 29 24.2923 28.6731 25.9269 27.9538C26.45 27.7577 26.7115 27.1038 26.5154 26.5808C26.3192 26.0577 25.6654 25.7962 25.1423 25.9923C23.7692 26.5808 22.3962 26.9077 21.0885 26.9077C18.9962 26.9077 17.3615 26.2538 16.1846 24.9462C15.0077 23.6385 14.4192 22.1346 14.4192 20.4346C14.4192 18.5385 15.0731 16.9692 16.25 15.7269C17.4923 14.4846 18.9962 13.8308 20.8269 13.8308C22.4615 13.8308 23.9 14.3538 25.0769 15.4C26.2538 16.4462 26.7769 17.7538 26.7769 19.3231C26.7769 20.3692 26.5154 21.2846 25.9923 22.0038C25.4692 22.7231 24.9462 23.05 24.3577 23.05C24.0308 23.05 23.9 22.9192 23.9 22.5269C23.9 22.2654 23.9 21.9385 23.9654 21.6115L24.6192 16.3154H22.3962L22.2654 16.8385C21.6769 16.3808 21.0885 16.1192 20.4346 16.1192C19.3885 16.1192 18.4731 16.5769 17.6885 17.4269C16.9039 18.2769 16.5769 19.3885 16.5769 20.6962C16.5769 22.0038 16.9039 23.05 17.6231 23.9C18.2769 24.6846 19.1269 25.0769 20.0423 25.0769C20.8923 25.0769 21.6115 24.75 22.2 24.0308C22.6577 24.6846 23.3115 25.0769 24.2269 25.0769C25.5346 25.0769 26.6462 24.4885 27.6269 23.3769C28.6077 22.2654 29.0654 20.8923 29.0654 19.2577C28.8692 17.2962 28.0846 15.5308 26.5808 14.1577ZM21.4154 22.1346C21.0231 22.6577 20.5654 22.9192 19.9769 22.9192C19.5846 22.9192 19.3231 22.7231 19.0616 22.3308C18.8 21.9385 18.7346 21.4808 18.7346 20.8923C18.7346 20.1731 18.8654 19.5846 19.1923 19.1923C19.5192 18.7346 19.9116 18.5385 20.3692 18.5385C20.7616 18.5385 21.1538 18.6692 21.4808 19.0615C21.8077 19.3885 21.9385 19.8462 21.9385 20.3692C22.0039 21.0231 21.8077 21.6115 21.4154 22.1346Z" fill="white"/>
</svg>
