<svg width="20" height="21" viewBox="0 0 20 21" fill="none" xmlns="http://www.w3.org/2000/svg">
<path fill-rule="evenodd" clip-rule="evenodd" d="M17.5002 14.6V17.1C17.5021 17.5693 17.3061 18.0176 16.9603 18.3349C16.6145 18.6522 16.1509 18.8089 15.6835 18.7667C13.1192 18.488 10.656 17.6118 8.49186 16.2083C6.47838 14.9289 4.77131 13.2218 3.49186 11.2083C2.08351 9.03435 1.20706 6.55917 0.933528 3.98334C0.891422 3.5174 1.04709 3.05522 1.3625 2.70969C1.67791 2.36417 2.12402 2.16712 2.59186 2.16668H5.09186C5.92841 2.15844 6.64145 2.77165 6.75853 3.60001C6.86405 4.40007 7.05974 5.18562 7.34186 5.94168C7.57081 6.55074 7.42437 7.23735 6.96686 7.70001L5.90853 8.75834C7.09482 10.8446 8.82224 12.572 10.9085 13.7583L11.9669 12.7C12.4295 12.2425 13.1161 12.0961 13.7252 12.325C14.4813 12.6071 15.2668 12.8028 16.0669 12.9083C16.9048 13.0266 17.5212 13.754 17.5002 14.6Z" stroke="#00398E" stroke-linecap="round" stroke-linejoin="round"/>
</svg>
