<svg width="25" height="25" viewBox="0 0 25 25" fill="none" xmlns="http://www.w3.org/2000/svg">
<circle cx="12.5" cy="12.5" r="12.5" fill="#2F89CE"/>
<path d="M5.84419 12.7338L8.718 13.8054L9.83829 17.4098C9.887 17.6534 10.1793 17.7021 10.3741 17.5559L11.9815 16.2408C12.1276 16.0947 12.3711 16.0947 12.566 16.2408L15.4398 18.3353C15.6346 18.4814 15.9269 18.384 15.9756 18.1404L18.1187 7.91166C18.1674 7.66812 17.9239 7.42458 17.6804 7.52199L5.84419 12.1006C5.55194 12.198 5.55194 12.6364 5.84419 12.7338ZM9.69217 13.2696L15.3423 9.81129C15.4398 9.76258 15.5372 9.90871 15.4398 9.95742L10.8125 14.2925C10.6663 14.4386 10.5202 14.6334 10.5202 14.877L10.3741 16.046C10.3741 16.1921 10.1305 16.2408 10.0818 16.046L9.49732 13.9028C9.3512 13.6593 9.44863 13.367 9.69217 13.2696Z" fill="white"/>
</svg>
